<?xml version='1.0' encoding='utf-8'?>
<svg xmlns="http://www.w3.org/2000/svg" enable-background="new 0 0 5000 4042.2231" version="1.1" viewBox="0 0 5e3 4042.2"> <path d="m4993.9 759.13c-22.706-100.45-95.522-150.73-177.43-210.73-168.78-123.82-191.96-196.97-301.29-290.22-50.854-43.375-80.064-69.241-176.9-91.06-26.694-6.0123-59.674-8.1485-82.915-22.359-270.6-165.47-709.46-200.28-1069.2-45.722l-74.752 34.717c-16.822 8.6409-34.056 19.501-51.612 26.276-22.422 8.651-120.14 17.287-216.32 90.869-87.842 67.199-147.26 159.67-230.31 230.49-112.01 95.522-288.89 150.56-275.22 343.21 12.887 181.64 159.3 317.14 217.99 483.61-248.83 122.58-377.98 99.068-862.7 83.11-308.07-1.8146-639.12 89.234-833.06 323.72l-31.962 41.044c-3.3203 4.535-9.0266 15.69-13.144 18.901-2.1779 1.696-15.259 2.8872-18.447 3.4542-41.656 7.4044-77.142 7.0725-117.33-6.5587-65.783-22.311-134.46-73.611-165.02-137.25-40.68-84.698-20.878-199.63 21.457-247.35 30.257-34.113 83.03-52.939 55.225-110.08-18.199-37.406-59.705-39.294-101.36-39.224-192.03 0.3225-405.43 146.55-468.46 361.04-17.728 60.33-21.606 121.86-21.096 184.38 0.8375 102.72 12.088 193.77 62.675 285.51 186.92 338.95 559.1 287.85 567.52 291.7-35.97 184.41-50.495 498.49-198.06 643.29-60.281 59.158-85.204 53.995-134.74 240.32-34.618 130.19-53.782 263.77-39.961 398.6 20.672 201.59 95.071 258.14 245.37 286.05 109.16 20.274 264.63 25.38 358.84-40.171 31.802-22.129 56.677-52.358 62.923-91.538 7.756-48.599-18.221-127.81-48.075-166.63-5.3035-6.8909-23.786-23.516-25.875-29.99-0.518-1.5947 1.0803-9.5173 1.2927-11.324 6.0326-51.481 10.354-83.479 97.944-152.5l236.13-159.37c8.5481 109.88 30.625 221.28 62.937 326.63 35.852 116.89 53.708 162.8 218.58 192.12 63.335 11.262 128.19 16.2 192.47 13.786 54.672-2.0547 119.77-13.445 158.57-55.388 40.191-43.45 43.285-147.21-28.836-213.29-35.161-32.222-56.367-22.514-64.172-28.945-1.8547-1.532-5.6263-42.527-5.8744-47.173-2.2751-42.736-0.1903-88.42 7.4061-130.57 85.947-65.666 154.04-137.39 215.37-226.73 97.684 25.27 314.8 89.626 597.51 80.241 36.8 200.07 95.146 398.23 182.64 582.16 74.75 157.14 124.46 222.55 287.45 257.02 128.09 27.1 318.73 26.794 389.26-80.511 57.44-87.388 3.5122-205.8-67.448-282.6-5.2195-5.646-23.883-20.331-26.132-26.234-1.3108-3.4346-1.592 6.6875 12.258-180.28 20.798 116.21 55.717 241.45 121.12 341.26 21.169 32.306 45.632 62.894 77.386 85.413 83.429 59.165 210.52 59.741 307.93 42.806 122.35-21.278 167.45-93.836 146.37-196.32-19.992-97.19-96.374-128.98-101.03-136.71-4.6177-7.6614-4.095-42.567-4.5598-53.191-9.3472-214.88 78.331-513.89 135.51-710.42 17.548-60.312 31.174-123.28 51.475-182.58 13.339-38.981 165.85-224.22 165.29-617.98l-5.312-171.74c35.946-17.196 68.837-39.64 100.71-63.43 154.36-115.14 224.72-255.28 249.81-450.97 74.913 50.059 166.62 80.139 215.41 4.5084 27.668-42.753 29.66-102.37 50.864-149.54 62.153-138.19 201.78-276.12 164.9-439.55zm-4502 1417.1c-227.24-11.326-356.42-182.91-387.88-393.74-35.612-238.58 117.47-437.96 363.81-474.04l46.154-2.7103c-61.033 58.687-90.981 129.31-92.72 214.29-1.8062 88.279 25.671 166.81 87.833 230.87 47.279 48.723 115.08 86.897 181.8 99.412 25.977 4.8756 51.896 5.0751 78.218 5.4558-32.086 55.888-55.198 115.82-73.981 177.32-3.6654 11.993-21.023 93.34-25.468 97.605-5.7903 5.5579-19.819 9.5745-27.575 12.719-51.019 20.677-95.434 30.535-150.19 32.824zm1509.5 863.96c-239.66-60.579-391.26-117.97-615.77-255.8l76.067 106.06c-31.28 45.955-62.698 90.913-99.839 132.37-182.77 204-398.12 280.68-510.12 389.42-97.794 94.951-74.948 192.9-78.838 198.67-1.6027 2.387-54.442 30.468-61.582 34.994 33.325-1.7668 66.938-0.4958 92.402 24.1 22.661 21.886 41.409 76.007 41.099 107.04-0.7183 72.388-154.46 85.013-227.13 82.778-40.97-1.2617-82.313-7.7588-122.22-16.713-37.265-8.3567-80.454-19.982-107.34-48.896-56.774-61.052-58.116-206.47-54.269-286.08 4.2364-87.69 21.599-177.28 45.508-261.71 232.22 52.958 376.59 116.51 715-220.55 237.32-236.38 255.95-360.33 367.31-397.68 112.96-37.9 191.71 93.291 425.19 208.01 161.99 79.594 333.54 121.17 513.68 84.266 42.462-8.7021 83.243-22.882 124.2-36.836l6.0159 4.5659c-6.322 68.621 5.4685 148.02 9.0308 217.61-180.92 4.1319-363.12-21.31-538.39-65.618zm2183.8-2285.9c33.91-3.2771 65.207-0.6556 94.734 17.51 128.31 78.855 85.018 263.73-32.67 288.88-14.52 3.1089-39.133 7.1783-51.75-0.9567 114.48-11.661 184.39-170.32 66.801-259.99-36.522-27.842-76.718-28.768-120.01-22.572l42.896-22.873zm-41.721 71.789c8.5-21.875 33.93-31.447 53.969-23.804 16.413 6.2593 27.82 23.742 26.94 41.286-0.8818 17.543-13.983 33.795-30.94 38.378-33.839 9.1465-61.477-26.245-49.968-55.86zm-977-12.753c57.111-70.09 149.2-88.637 225.25-26.08 108.15 88.993 64.825 269.76-94.31 277.75-4.4666 0.2214-8.3665 0.2703-12.758-0.7085 53.786-11.329 91.209-48.242 109.29-95.138 28.616-74.228-12.576-159.73-78.581-183.07-38.881-13.755-67.5-6.6518-103.33 10.828 52.742 3.8903 65.906 43.002 43.83 68.408-19.331 22.238-51.643 22.602-65.464 8.9148-14.277-14.136-13.852-31.372-13.696-49.954-7.3267 4.0698-18.92 26.899-23.197 35.313-31.166 61.327-10.121 108.25 1.2305 139.55-32.312-26.235-43.351-118.23 11.731-185.81zm282.22 2218.9c-32.139 12.24-66.558 26.062-100.36 32.683 5.8079-58.833 9.4956-116.08 4.9358-175.23-0.6375-8.2505 0.2258-24.587-4.3428-31.505l-1.5493-1.718c-12.471 29.658-17.238 68.19-24.671 99.903-46.406 197.97-82.454 397.38-93.699 600.76-2.271 41.079-7.2864 93.128 2.5454 133.33 54.742 42.93 98.922 85.475 107.89 158.53 9.5337 77.706-70.881 105.04-147.89 110.23-82.211 5.5491-168.61-4.5571-244.78-37.262-61.3-26.315-69.284-37.077-117.97-122.82-110.8-195.13-171.03-425.06-214.96-643.77-17.504-87.145-34.516-177.45-43.972-265.86l79.834-19.282c252.64-82.738 386.83-418.16 161.67-701.74-154.08-178.4-379.91-406.96-191.05-775.26 20.863-4.5292 43.223 21.343 118.26-15.508 9.6018-4.7122 20.062-12.71 30.364-15.239 23.923 40.521 47.951 80.714 76.611 118.11 253.33 330.63 740.58 517.72 1112.4 455.53 59.421-9.9374 114.82-26.686 172.28-44.17 49.11 518.11-188.08 952.36-681.52 1140.3zm898.22-1366.4c-198.16 207.34-587.76 280.45-938.07 124.62-71.276-31.706-244.28-52.624-252.96-271.93-2.6838-67.77 6.0586-120.04 73.326-219.56 67.146-99.332 153.42-183.8 251.36-252.63l66.124-44.161c19.669-12.112 49.691-25.229 64.508-42.695 12.107-14.273 17.025-35.393 22.223-53.014 25.268-85.613 31.537-172.58 24.339-261.38-17.087-210.74-143.02-387.25-300.06-520.65 51.622-12.469 103.47-25.051 156.16-32.097 175.21-23.431 346.78-8.7018 516.1 40.413 0.2834 25.429 1.5671 51.697-1.2571 76.988-13.409 120.09-67.036 228.14-92.76 344.89-29.448 133.66-27.416 329.65 77.545 431.28 51.343 49.71 124.84 84.939 183.76 125.16 112.18 76.578 227.89 213.81 231.43 355.19 1.9925 79.023-27.8 143.14-81.764 199.58z"/> <path d="m3884.2 1615c-77.955-57.712-61.308-126.49-63.809-187.36 74.566-28.586 157.32-67.429 192.15-144.61 27.937-61.902 6.957-124.66-65.77-155.37-50.041-21.12-127.62-28.644-181.53-21.115-52.835 5.3849-112.53 14.933-148.06 58.882-23.019 28.474-30.082 61.883-21.616 100.87 18.169 81.714 122.66 139.8 199.13 159.32-4.8147 105.9-1.7288 94.002-4.9226 105.81-6.574 24.304-27.615 49.847-45.84 66.366-65.497 59.359-142.91 49.283-220.9 41.908 72.738 59.726 199.6 61.053 282.53-40.313 41.329 49.937 87.65 79.174 153.16 80.25 45.349 0.7439 83.575-13.299 118.67-41.376-65.367 10.119-136.75 18.529-193.2-23.268z"/> </svg>